<svg width="980" height="200" viewBox="0 0 980 200" fill="none" xmlns="http://www.w3.org/2000/svg">
<rect width="980" height="200" fill="#211639"/>
<path d="M446.631 21.625H457.938C457.938 21.625 459.625 20.0934 459.625 18.8125C459.625 17.5316 457.938 16 457.938 16H446.631C440.76 16 436 20.7598 436 26.6312V111.681C436 117.553 440.76 122.312 446.631 122.312H531.681C537.553 122.312 542.312 117.553 542.312 111.681V77.875C542.312 77.875 540.781 76.1875 539.5 76.1875C538.219 76.1875 536.688 77.875 536.688 77.875V111.681C536.688 114.446 534.446 116.688 531.681 116.688H446.631C443.866 116.688 441.625 114.446 441.625 111.681V26.6312C441.625 23.8664 443.866 21.625 446.631 21.625Z" fill="url(#paint0_linear_257_110)"/>
<path fill-rule="evenodd" clip-rule="evenodd" d="M471.067 46.2993C463.814 42.2866 460.188 40.2802 460.188 37.787C460.188 35.2939 463.814 33.2875 471.067 29.2748L478.742 25.0286C489.622 19.0095 495.062 16 501.822 16C508.582 16 514.021 19.0095 524.901 25.0286L533.12 29.5757C540.373 33.5884 544 35.5948 544 38.088C544 39.0699 543.438 39.9763 542.312 40.9594V63.25C542.312 64.8033 541.053 66.0625 539.5 66.0625C537.947 66.0625 536.688 64.8033 536.688 63.25V44.6121C535.617 45.2187 534.43 45.8757 533.125 46.5977L529.848 48.4107L526.54 75.7013C526.162 78.8141 524.18 81.6577 521.087 82.7512C516.8 84.2666 508.557 86.875 502.103 86.875C495.681 86.875 487.488 84.2924 483.187 82.775C480.038 81.664 478.044 78.7441 477.714 75.5718L474.892 48.4155L471.067 46.2993ZM480.893 51.7345L483.309 74.9905C483.443 76.2787 484.209 77.1709 485.058 77.4704C489.387 78.9975 496.752 81.25 502.103 81.25C507.482 81.25 514.896 78.9739 519.212 77.4479C520.046 77.1528 520.803 76.2847 520.956 75.0244L523.774 51.7702C513.99 57.1734 508.77 59.875 502.366 59.875C495.947 59.875 490.718 57.1615 480.893 51.7345ZM476.919 31.2044L483.198 27.7303C492.133 22.7871 496.476 20.3977 501.871 20.3977C507.267 20.3977 511.609 22.7871 520.544 27.7303L527.269 31.4507C530.247 33.0984 532.443 34.3143 533.9 35.3702C535.381 36.4445 535.935 37.2429 535.935 38.0095C535.935 38.776 535.381 39.5745 533.9 40.6488C532.443 41.7047 530.247 42.9205 527.269 44.5683L520.989 48.0424C512.054 52.9856 507.712 55.375 502.316 55.375C496.921 55.375 492.578 52.9856 483.643 48.0424L476.919 44.3221C473.94 42.6743 471.744 41.4584 470.288 40.4026C468.806 39.3282 468.252 38.5298 468.252 37.7632C468.252 36.9967 468.806 36.1982 470.288 35.1239C471.744 34.0681 473.94 32.8522 476.919 31.2044Z" fill="url(#paint1_linear_257_110)"/>
<path d="M437.854 169.093C437.854 169.943 437.83 170.58 437.783 171.005H421.174C421.221 172.728 421.599 174.18 422.307 175.361C423.015 176.541 423.948 177.427 425.105 178.017C426.262 178.607 427.525 178.902 428.894 178.902C430.783 178.902 432.365 178.442 433.639 177.521C434.914 176.577 435.717 175.302 436.048 173.696H437.712C437.334 175.656 436.366 177.25 434.808 178.477C433.25 179.681 431.279 180.283 428.894 180.283C427.1 180.283 425.494 179.882 424.078 179.079C422.661 178.277 421.552 177.132 420.749 175.644C419.946 174.133 419.545 172.374 419.545 170.368C419.545 168.361 419.934 166.614 420.713 165.126C421.516 163.639 422.626 162.506 424.042 161.727C425.459 160.924 427.076 160.523 428.894 160.523C430.736 160.523 432.329 160.924 433.675 161.727C435.044 162.506 436.083 163.556 436.791 164.878C437.499 166.177 437.854 167.582 437.854 169.093ZM436.26 169.695C436.331 167.995 436.024 166.555 435.339 165.374C434.678 164.194 433.769 163.32 432.612 162.754C431.456 162.163 430.204 161.868 428.859 161.868C427.513 161.868 426.262 162.163 425.105 162.754C423.972 163.32 423.039 164.194 422.307 165.374C421.599 166.555 421.221 167.995 421.174 169.695H436.26ZM441.678 170.368C441.678 168.384 442.068 166.649 442.847 165.162C443.65 163.674 444.747 162.529 446.14 161.727C447.557 160.924 449.162 160.523 450.957 160.523C452.916 160.523 454.616 161.018 456.056 162.01C457.496 162.978 458.512 164.241 459.102 165.799V153.794H460.695V180H459.102V174.9C458.535 176.482 457.544 177.781 456.127 178.796C454.71 179.788 452.987 180.283 450.957 180.283C449.162 180.283 447.557 179.882 446.14 179.079C444.747 178.253 443.65 177.096 442.847 175.609C442.068 174.098 441.678 172.351 441.678 170.368ZM459.102 170.368C459.102 168.691 458.748 167.216 458.039 165.941C457.355 164.642 456.41 163.651 455.206 162.966C454.002 162.258 452.656 161.904 451.169 161.904C449.611 161.904 448.242 162.246 447.061 162.931C445.881 163.592 444.96 164.56 444.299 165.835C443.638 167.109 443.307 168.62 443.307 170.368C443.307 172.115 443.638 173.626 444.299 174.9C444.96 176.175 445.881 177.155 447.061 177.84C448.265 178.524 449.635 178.867 451.169 178.867C452.656 178.867 454.002 178.524 455.206 177.84C456.434 177.132 457.39 176.14 458.075 174.865C458.759 173.567 459.102 172.067 459.102 170.368ZM482.753 160.77V180H481.159V175.821C480.616 177.285 479.707 178.406 478.432 179.185C477.181 179.941 475.741 180.319 474.112 180.319C471.822 180.319 469.945 179.622 468.481 178.229C467.041 176.813 466.321 174.723 466.321 171.961V160.77H467.879V171.855C467.879 174.145 468.457 175.904 469.614 177.132C470.771 178.336 472.341 178.938 474.324 178.938C476.402 178.938 478.055 178.277 479.282 176.954C480.533 175.632 481.159 173.673 481.159 171.076V160.77H482.753ZM490.935 162.152V174.865C490.935 176.282 491.195 177.261 491.714 177.804C492.233 178.324 493.154 178.583 494.476 178.583H496.637V180H494.228C492.552 180 491.313 179.61 490.51 178.831C489.731 178.029 489.341 176.707 489.341 174.865V162.152H486.437V160.77H489.341V155.883H490.935V160.77H496.637V162.152H490.935ZM501.654 156.485C501.276 156.485 500.957 156.367 500.698 156.131C500.438 155.872 500.308 155.529 500.308 155.104C500.308 154.703 500.438 154.372 500.698 154.113C500.957 153.853 501.276 153.723 501.654 153.723C502.032 153.723 502.35 153.853 502.61 154.113C502.87 154.372 503 154.703 503 155.104C503 155.529 502.87 155.872 502.61 156.131C502.35 156.367 502.032 156.485 501.654 156.485ZM502.433 160.77V180H500.839V160.77H502.433ZM531.01 160.381C533.206 160.381 535 161.089 536.393 162.506C537.786 163.899 538.483 165.976 538.483 168.738V180H536.924V168.845C536.924 166.555 536.37 164.808 535.26 163.604C534.174 162.376 532.675 161.762 530.762 161.762C528.779 161.762 527.186 162.447 525.982 163.816C524.778 165.185 524.176 167.168 524.176 169.765V180H522.617V168.845C522.617 166.555 522.062 164.808 520.953 163.604C519.867 162.376 518.368 161.762 516.455 161.762C514.472 161.762 512.879 162.447 511.675 163.816C510.47 165.185 509.868 167.168 509.868 169.765V180H508.275V160.77H509.868V164.949C510.411 163.438 511.285 162.305 512.489 161.55C513.717 160.77 515.121 160.381 516.703 160.381C518.45 160.381 519.949 160.841 521.201 161.762C522.476 162.659 523.349 163.993 523.821 165.764C524.27 163.993 525.143 162.659 526.442 161.762C527.74 160.841 529.263 160.381 531.01 160.381ZM561.455 169.093C561.455 169.943 561.432 170.58 561.384 171.005H544.775C544.823 172.728 545.2 174.18 545.909 175.361C546.617 176.541 547.549 177.427 548.706 178.017C549.863 178.607 551.126 178.902 552.496 178.902C554.384 178.902 555.966 178.442 557.241 177.521C558.516 176.577 559.319 175.302 559.649 173.696H561.314C560.936 175.656 559.968 177.25 558.41 178.477C556.851 179.681 554.88 180.283 552.496 180.283C550.701 180.283 549.096 179.882 547.679 179.079C546.263 178.277 545.153 177.132 544.35 175.644C543.548 174.133 543.146 172.374 543.146 170.368C543.146 168.361 543.536 166.614 544.315 165.126C545.118 163.639 546.227 162.506 547.644 161.727C549.06 160.924 550.678 160.523 552.496 160.523C554.337 160.523 555.931 160.924 557.276 161.727C558.646 162.506 559.684 163.556 560.393 164.878C561.101 166.177 561.455 167.582 561.455 169.093ZM559.862 169.695C559.932 167.995 559.625 166.555 558.941 165.374C558.28 164.194 557.371 163.32 556.214 162.754C555.057 162.163 553.806 161.868 552.46 161.868C551.114 161.868 549.863 162.163 548.706 162.754C547.573 163.32 546.641 164.194 545.909 165.374C545.2 166.555 544.823 167.995 544.775 169.695H559.862Z" fill="#D0536B"/>
<defs>
<linearGradient id="paint0_linear_257_110" x1="436" y1="16" x2="544" y2="122.312" gradientUnits="userSpaceOnUse">
<stop stop-color="#E25C63"/>
<stop offset="1" stop-color="#5417A7"/>
</linearGradient>
<linearGradient id="paint1_linear_257_110" x1="436" y1="16" x2="544" y2="122.312" gradientUnits="userSpaceOnUse">
<stop stop-color="#E25C63"/>
<stop offset="1" stop-color="#5417A7"/>
</linearGradient>
</defs>
</svg>
