<svg width="980" height="200" viewBox="0 0 980 200" fill="none" xmlns="http://www.w3.org/2000/svg">
<rect width="980" height="200" fill="#211639"/>
<path d="M446.631 21.625H457.938C457.938 21.625 459.625 20.0934 459.625 18.8125C459.625 17.5316 457.938 16 457.938 16H446.631C440.76 16 436 20.7598 436 26.6312V111.681C436 117.553 440.76 122.312 446.631 122.312H531.681C537.553 122.312 542.312 117.553 542.312 111.681V77.875C542.312 77.875 540.781 76.1875 539.5 76.1875C538.219 76.1875 536.688 77.875 536.688 77.875V111.681C536.688 114.446 534.446 116.688 531.681 116.688H446.631C443.866 116.688 441.625 114.446 441.625 111.681V26.6312C441.625 23.8664 443.866 21.625 446.631 21.625Z" fill="url(#paint0_linear_257_110)"/>
<path fill-rule="evenodd" clip-rule="evenodd" d="M471.067 46.2993C463.814 42.2866 460.188 40.2802 460.188 37.787C460.188 35.2939 463.814 33.2875 471.067 29.2748L478.742 25.0286C489.622 19.0095 495.062 16 501.822 16C508.582 16 514.021 19.0095 524.901 25.0286L533.12 29.5757C540.373 33.5884 544 35.5948 544 38.088C544 39.0699 543.438 39.9763 542.312 40.9594V63.25C542.312 64.8033 541.053 66.0625 539.5 66.0625C537.947 66.0625 536.688 64.8033 536.688 63.25V44.6121C535.617 45.2187 534.43 45.8757 533.125 46.5977L529.848 48.4107L526.54 75.7013C526.162 78.8141 524.18 81.6577 521.087 82.7512C516.8 84.2666 508.557 86.875 502.103 86.875C495.681 86.875 487.488 84.2924 483.187 82.775C480.038 81.664 478.044 78.7441 477.714 75.5718L474.892 48.4155L471.067 46.2993ZM480.893 51.7345L483.309 74.9905C483.443 76.2787 484.209 77.1709 485.058 77.4704C489.387 78.9975 496.752 81.25 502.103 81.25C507.482 81.25 514.896 78.9739 519.212 77.4479C520.046 77.1528 520.803 76.2847 520.956 75.0244L523.774 51.7702C513.99 57.1734 508.77 59.875 502.366 59.875C495.947 59.875 490.718 57.1615 480.893 51.7345ZM476.919 31.2044L483.198 27.7303C492.133 22.7871 496.476 20.3977 501.871 20.3977C507.267 20.3977 511.609 22.7871 520.544 27.7303L527.269 31.4507C530.247 33.0984 532.443 34.3143 533.9 35.3702C535.381 36.4445 535.935 37.2429 535.935 38.0095C535.935 38.776 535.381 39.5745 533.9 40.6488C532.443 41.7047 530.247 42.9205 527.269 44.5683L520.989 48.0424C512.054 52.9856 507.712 55.375 502.316 55.375C496.921 55.375 492.578 52.9856 483.643 48.0424L476.919 44.3221C473.94 42.6743 471.744 41.4584 470.288 40.4026C468.806 39.3282 468.252 38.5298 468.252 37.7632C468.252 36.9967 468.806 36.1982 470.288 35.1239C471.744 34.0681 473.94 32.8522 476.919 31.2044Z" fill="url(#paint1_linear_257_110)"/>
<path d="M457.67 169.093C457.67 169.943 457.646 170.58 457.599 171.005H440.99C441.037 172.728 441.415 174.18 442.123 175.361C442.832 176.541 443.764 177.427 444.921 178.017C446.078 178.607 447.341 178.902 448.71 178.902C450.599 178.902 452.181 178.442 453.456 177.521C454.731 176.577 455.533 175.302 455.864 173.696H457.528C457.151 175.656 456.183 177.25 454.624 178.477C453.066 179.681 451.095 180.283 448.71 180.283C446.916 180.283 445.311 179.882 443.894 179.079C442.478 178.277 441.368 177.132 440.565 175.644C439.763 174.133 439.361 172.374 439.361 170.368C439.361 168.361 439.751 166.614 440.53 165.126C441.333 163.639 442.442 162.506 443.859 161.727C445.275 160.924 446.892 160.523 448.71 160.523C450.552 160.523 452.145 160.924 453.491 161.727C454.861 162.506 455.899 163.556 456.608 164.878C457.316 166.177 457.67 167.582 457.67 169.093ZM456.076 169.695C456.147 167.995 455.84 166.555 455.156 165.374C454.495 164.194 453.586 163.32 452.429 162.754C451.272 162.163 450.021 161.868 448.675 161.868C447.329 161.868 446.078 162.163 444.921 162.754C443.788 163.32 442.855 164.194 442.123 165.374C441.415 166.555 441.037 167.995 440.99 169.695H456.076ZM469.463 155.14C473.665 155.14 476.9 156.238 479.166 158.433C481.456 160.629 482.601 163.686 482.601 167.605C482.601 171.524 481.456 174.57 479.166 176.742C476.9 178.914 473.665 180 469.463 180H462.486V155.14H469.463ZM469.463 178.654C473.217 178.654 476.073 177.686 478.033 175.75C479.992 173.791 480.972 171.076 480.972 167.605C480.972 164.111 479.992 161.384 478.033 159.425C476.073 157.465 473.217 156.485 469.463 156.485H464.08V178.654H469.463ZM486.429 170.368C486.429 168.384 486.819 166.649 487.598 165.162C488.401 163.674 489.499 162.529 490.891 161.727C492.308 160.924 493.913 160.523 495.708 160.523C497.738 160.523 499.462 161.018 500.878 162.01C502.295 163.002 503.286 164.265 503.853 165.799V160.77H505.446V180H503.853V174.936C503.286 176.494 502.283 177.781 500.843 178.796C499.426 179.788 497.714 180.283 495.708 180.283C493.913 180.283 492.308 179.882 490.891 179.079C489.499 178.253 488.401 177.096 487.598 175.609C486.819 174.098 486.429 172.351 486.429 170.368ZM503.853 170.368C503.853 168.691 503.499 167.216 502.79 165.941C502.106 164.642 501.161 163.651 499.957 162.966C498.753 162.258 497.408 161.904 495.92 161.904C494.362 161.904 492.993 162.246 491.812 162.931C490.632 163.592 489.711 164.56 489.05 165.835C488.389 167.109 488.058 168.62 488.058 170.368C488.058 172.115 488.389 173.626 489.05 174.9C489.711 176.175 490.632 177.155 491.812 177.84C493.016 178.524 494.386 178.867 495.92 178.867C497.408 178.867 498.753 178.524 499.957 177.84C501.185 177.132 502.141 176.14 502.826 174.865C503.511 173.567 503.853 172.067 503.853 170.368ZM512.843 164.737C513.315 163.32 514.153 162.246 515.357 161.514C516.561 160.759 518.096 160.381 519.961 160.381V162.045H519.43C517.541 162.045 515.971 162.588 514.72 163.674C513.468 164.737 512.843 166.484 512.843 168.916V180H511.249V160.77H512.843V164.737ZM532.094 180.283C530.299 180.283 528.682 179.882 527.242 179.079C525.802 178.277 524.669 177.132 523.842 175.644C523.04 174.133 522.638 172.374 522.638 170.368C522.638 168.384 523.051 166.649 523.878 165.162C524.704 163.651 525.837 162.506 527.278 161.727C528.741 160.924 530.37 160.523 532.165 160.523C533.959 160.523 535.576 160.924 537.016 161.727C538.456 162.506 539.578 163.639 540.381 165.126C541.207 166.614 541.62 168.361 541.62 170.368C541.62 172.374 541.207 174.133 540.381 175.644C539.554 177.132 538.409 178.277 536.945 179.079C535.505 179.882 533.888 180.283 532.094 180.283ZM532.094 178.867C533.487 178.867 534.785 178.56 535.989 177.946C537.217 177.309 538.197 176.352 538.929 175.078C539.66 173.803 540.026 172.233 540.026 170.368C540.026 168.526 539.66 166.968 538.929 165.693C538.197 164.418 537.229 163.474 536.025 162.86C534.821 162.222 533.522 161.904 532.129 161.904C530.736 161.904 529.438 162.222 528.234 162.86C527.053 163.474 526.097 164.418 525.365 165.693C524.633 166.968 524.267 168.526 524.267 170.368C524.267 172.233 524.621 173.803 525.33 175.078C526.062 176.352 527.018 177.309 528.198 177.946C529.402 178.56 530.701 178.867 532.094 178.867Z" fill="#D0536B"/>
<defs>
<linearGradient id="paint0_linear_257_110" x1="436" y1="16" x2="544" y2="122.312" gradientUnits="userSpaceOnUse">
<stop stop-color="#E25C63"/>
<stop offset="1" stop-color="#5417A7"/>
</linearGradient>
<linearGradient id="paint1_linear_257_110" x1="436" y1="16" x2="544" y2="122.312" gradientUnits="userSpaceOnUse">
<stop stop-color="#E25C63"/>
<stop offset="1" stop-color="#5417A7"/>
</linearGradient>
</defs>
</svg>
